<svg width="0" height="0" class="hidden">
  <symbol version="1.0" xmlns="http://www.w3.org/2000/svg" preserveAspectRatio="xMidYMid meet" viewBox="0 0 512.000000 512.000000" id="telephone">
    <g transform="translate(0.000000,512.000000) scale(0.100000,-0.100000)" stroke="none">
      <path d="M916 5105 c-81 -21 -164 -67 -249 -140 -94 -81 -431 -424 -486 -495
-223 -285 -227 -728 -11 -1300 263 -699 756 -1407 1380 -1982 860 -793 2012
-1306 2605 -1162 88 21 234 89 301 140 68 51 520 515 562 576 78 113 108 264
78 392 -34 143 -45 156 -480 592 -439 439 -453 450 -598 480 -115 24 -232 3
-345 -62 -26 -16 -150 -129 -275 -253 l-227 -224 -73 38 c-179 93 -311 182
-508 344 -202 166 -484 457 -640 661 -113 148 -279 421 -280 458 0 7 78 89
173 182 200 195 279 286 324 372 56 109 67 247 28 361 -39 116 -77 160 -459
543 -378 378 -436 428 -544 465 -75 27 -199 33 -276 14z m232 -281 c28 -16
188 -167 403 -383 389 -390 404 -408 403 -511 0 -91 -24 -123 -285 -384 -132
-131 -247 -252 -255 -269 -12 -21 -15 -50 -12 -99 3 -60 11 -83 72 -204 138
-274 320 -515 621 -823 299 -306 597 -534 904 -692 109 -56 130 -64 180 -63
34 0 70 7 91 18 19 10 143 126 275 257 170 169 253 244 285 258 60 27 138 27
193 0 60 -30 767 -736 798 -798 17 -33 24 -63 24 -106 0 -103 -21 -131 -305
-416 -281 -282 -307 -301 -457 -335 -145 -32 -388 -6 -634 67 -375 111 -879
377 -1294 683 -799 588 -1485 1487 -1770 2318 -136 395 -151 678 -47 888 32
67 62 101 270 312 128 130 251 248 272 263 90 62 182 69 268 19z"></path>
    </g>
  </symbol>
  <symbol version="1.0" xmlns="http://www.w3.org/2000/svg" preserveAspectRatio="xMidYMid meet" viewBox="0 0 512.000000 512.000000" id="discord">
    <g transform="translate(0.000000,512.000000) scale(0.100000,-0.100000)" stroke="none">
      <path d="M664 5105 c-194 -42 -364 -201 -427 -400 l-22 -70 0 -1650 c0 -1792
-3 -1696 56 -1820 85 -179 259 -302 462 -325 48 -6 679 -10 1508 -10 l1427 0
488 -397 c269 -218 505 -405 524 -415 19 -10 48 -18 65 -18 47 0 117 40 140
80 20 35 20 45 20 2295 l0 2260 -22 70 c-64 201 -233 358 -430 400 -97 21
-3694 21 -3789 0z m3791 -340 c65 -40 111 -102 124 -167 8 -37 10 -651 9
-2077 l-3 -2024 -215 173 c-118 96 -279 227 -358 292 -78 66 -163 133 -188
151 l-46 32 -1521 5 c-1517 5 -1522 5 -1567 26 -58 26 -108 76 -134 134 -21
45 -21 46 -24 1640 -1 1105 1 1611 8 1647 18 85 84 159 169 189 29 11 388 13
1867 11 l1831 -2 48 -30z"></path>
      <path d="M2105 4073 c-419 -36 -701 -188 -936 -506 -198 -266 -312 -635 -326
-1048 -9 -265 14 -375 107 -507 127 -181 372 -299 718 -347 150 -20 187 -19
232 6 21 12 64 56 96 97 82 106 125 153 134 147 22 -14 285 -35 430 -35 132 0
363 17 431 32 7 2 52 -46 100 -105 48 -59 100 -118 114 -129 38 -29 99 -33
240 -14 487 67 766 264 822 582 21 121 13 392 -17 563 -71 409 -197 672 -437
914 -190 191 -433 313 -693 347 -68 8 -920 11 -1015 3z m854 -313 c292 -26
462 -97 628 -261 241 -239 366 -590 367 -1034 1 -215 -4 -234 -81 -308 -74
-73 -210 -129 -386 -162 -151 -28 -150 -23 25 107 166 124 188 149 188 218 0
49 -17 84 -59 124 -25 24 -42 30 -88 34 -54 3 -62 1 -123 -39 -274 -179 -637
-265 -1006 -239 -295 21 -500 86 -720 230 -76 50 -81 52 -137 48 -46 -4 -63
-10 -88 -34 -42 -40 -59 -75 -59 -124 0 -69 22 -94 188 -217 86 -64 151 -118
143 -121 -20 -7 -156 17 -249 44 -155 45 -268 119 -315 209 -20 37 -22 54 -21
230 0 136 5 218 18 290 62 343 160 550 350 741 131 130 284 214 446 244 124
23 790 37 979 20z"></path>
      <path d="M1913 3222 c-168 -60 -265 -230 -233 -410 33 -189 164 -302 351 -304
158 -1 264 60 329 187 34 66 35 72 35 179 0 102 -2 116 -29 170 -62 126 -161
188 -311 193 -69 3 -102 -1 -142 -15z m162 -326 c28 -42 -10 -85 -56 -63 -27
14 -37 51 -19 73 19 22 58 17 75 -10z"></path>
      <path d="M2959 3221 c-134 -43 -218 -145 -238 -286 -25 -174 45 -317 187 -387
63 -31 72 -33 177 -33 104 0 113 2 171 32 126 66 187 174 187 328 0 103 -15
153 -68 225 -87 118 -264 170 -416 121z m161 -321 c22 -42 -14 -86 -57 -69
-49 18 -35 89 17 89 19 0 33 -7 40 -20z"></path>
    </g>
  </symbol>
  <symbol version="1.0" xmlns="http://www.w3.org/2000/svg" preserveAspectRatio="xMidYMid meet" viewBox="0 0 512.000000 512.000000" id="discord-_1_">
    <g transform="translate(0.000000,512.000000) scale(0.100000,-0.100000)" stroke="none">
      <path d="M1712 4589 c-454 -180 -920 -499 -1046 -718 -155 -270 -293 -623
-410 -1046 -101 -368 -189 -900 -241 -1454 l-17 -174 48 -70 c27 -38 83 -105
125 -147 296 -296 717 -467 1199 -487 l145 -6 145 212 c131 191 147 211 170
208 14 -3 81 -16 150 -30 359 -75 794 -75 1158 0 70 14 138 27 152 30 23 3 39
-16 168 -207 l143 -210 97 0 c363 0 747 112 1026 297 120 80 280 236 349 340
l48 72 -21 188 c-59 539 -134 1020 -205 1319 -28 117 -155 510 -225 693 -72
190 -114 283 -190 421 -59 108 -82 138 -153 207 -98 94 -231 196 -377 288
-195 123 -639 330 -661 308 -16 -16 -101 -265 -92 -272 4 -4 42 -20 83 -36
120 -45 330 -148 457 -223 114 -68 225 -142 212 -142 -4 0 -67 15 -140 34
-433 111 -818 161 -1249 161 -437 0 -878 -59 -1280 -169 -145 -40 -144 -36 32
73 143 90 299 170 468 241 80 34 146 63 148 65 6 5 -95 269 -104 272 -5 1 -55
-16 -112 -38z m1273 -764 c411 -43 820 -134 1140 -256 190 -72 182 -65 237
-207 61 -154 191 -538 223 -656 58 -213 132 -645 185 -1081 16 -137 33 -272
36 -299 l6 -49 -93 -91 c-108 -105 -212 -179 -337 -241 -175 -86 -385 -144
-543 -148 l-81 -2 -73 106 -74 106 135 58 c134 58 283 137 401 212 l62 39 -79
119 c-44 66 -84 121 -89 123 -4 1 -46 -21 -92 -49 -136 -85 -375 -196 -535
-248 -148 -49 -362 -97 -544 -122 -124 -18 -496 -18 -620 0 -420 58 -741 168
-1076 367 -54 33 -98 53 -103 48 -5 -5 -43 -61 -85 -124 l-76 -114 62 -39
c113 -73 286 -163 412 -217 l125 -53 -73 -106 -74 -106 -76 2 c-159 4 -390 66
-549 148 -132 68 -232 139 -336 239 l-93 91 7 80 c19 229 64 566 111 845 52
306 137 634 249 960 40 116 120 317 130 329 13 12 568 161 825 220 221 51 523
106 660 120 58 6 119 13 135 15 59 9 413 -4 560 -19z"></path>
      <path d="M1562 2333 l3 -248 148 -3 147 -3 0 251 0 250 -150 0 -150 0 2 -247z"></path>
      <path d="M3252 2333 l3 -248 150 0 150 0 3 248 2 247 -155 0 -155 0 2 -247z"></path>
    </g>
  </symbol>
  <symbol xmlns="http://www.w3.org/2000/svg"  viewBox="0 0 24 24" id="done_black_24dp">
    <path d="M0 0h24v24H0V0z" fill="none"></path>
    <path d="M9 16.2L4.8 12l-1.4 1.4L9 19 21 7l-1.4-1.4L9 16.2z"></path>
  </symbol>
  <symbol xmlns="http://www.w3.org/2000/svg" viewBox="0 0 24 24" id="done_white_24dp">
    <path d="M0 0h24v24H0V0z" fill="none"></path>
    <path d="M9 16.2L4.8 12l-1.4 1.4L9 19 21 7l-1.4-1.4L9 16.2z"></path>
  </symbol>
  <symbol xmlns="http://www.w3.org/2000/svg" viewBox="0 0 48 48" id="eco_FILL0_wght400_GRAD0_opsz48">
    <path d="M10.65 39.25q-2.2-2.25-3.425-5.2Q6 31.1 6 28q0-3.65 1.275-6.675T11.1 15.75q1.75-1.75 4.35-2.95 2.6-1.2 6.125-1.875t7.975-.85q4.45-.175 9.9.175.4 5.4.275 9.875t-.8 8.025q-.675 3.55-1.9 6.225Q35.8 37.05 34 38.85q-2.55 2.55-5.5 3.85-2.95 1.3-6.3 1.3-3.45 0-6.325-1.175T10.65 39.25Zm5.15 0q1.25.85 2.9 1.3 1.65.45 3.5.45 2.65 0 5.15-1.1 2.5-1.1 4.55-3.2 1.35-1.35 2.3-3.525.95-2.175 1.55-5.15.6-2.975.8-6.725.2-3.75 0-8.25-4.7-.1-8.425.125Q24.4 13.4 21.55 14t-4.9 1.525q-2.05.925-3.35 2.275-2.1 2.15-3.2 4.55T9 27.25q0 2.4 1.025 5.025Q11.05 34.9 12.55 36.5q2.65-4.9 6.35-8.8 3.7-3.9 7.85-6.15-4.35 3.75-7.05 8.125t-3.9 9.575Zm0 0Zm0 0Z"></path>
  </symbol>
  <symbol version="1.0" xmlns="http://www.w3.org/2000/svg" preserveAspectRatio="xMidYMid meet" viewBox="0 0 512.000000 512.000000" id="github-_1_">
    <g transform="translate(0.000000,512.000000) scale(0.100000,-0.100000)" stroke="none">
      <path d="M1425 5048 c-18 -40 -43 -101 -54 -136 -48 -141 -53 -184 -58 -506
l-5 -308 -59 -112 c-108 -207 -153 -387 -152 -616 1 -467 254 -893 708 -1193
98 -64 272 -152 375 -188 36 -12 67 -24 69 -25 2 -2 -17 -25 -42 -51 -63 -66
-79 -89 -121 -164 -60 -110 -116 -305 -116 -405 l0 -34 -137 0 c-222 1 -237
13 -358 290 -46 105 -96 210 -111 231 -45 66 -144 150 -217 185 -95 45 -175
56 -384 52 -168 -3 -181 -5 -234 -29 -76 -36 -133 -90 -166 -157 -39 -80 -40
-191 -2 -273 58 -123 149 -180 300 -189 100 -6 138 -20 159 -59 5 -11 37 -92
69 -180 33 -89 76 -192 96 -230 77 -145 198 -260 350 -331 127 -59 185 -70
418 -77 l207 -6 0 -269 0 -268 985 0 985 0 0 648 c0 356 -5 691 -10 744 -18
188 -100 373 -221 503 -34 36 -60 67 -58 69 2 1 33 13 69 25 333 117 663 368
850 648 162 242 233 465 233 738 0 234 -39 389 -153 615 l-59 115 -4 305 c-6
363 -18 434 -113 639 l-34 74 -167 -6 c-190 -6 -254 -19 -380 -77 -105 -49
-163 -88 -240 -163 -52 -51 -65 -59 -90 -54 -15 2 -81 16 -145 30 -176 38
-326 50 -538 44 -185 -5 -285 -18 -457 -59 l-91 -21 -64 58 c-190 174 -382
245 -665 245 l-134 0 -34 -72z m425 -177 c102 -35 186 -91 303 -201 l108 -103
87 26 c232 71 390 91 657 84 226 -6 345 -24 537 -83 l89 -27 72 69 c200 195
301 248 494 261 l93 6 16 -39 c43 -103 54 -205 54 -525 l0 -307 36 -53 c122
-179 195 -447 180 -660 -40 -583 -520 -1051 -1244 -1215 l-123 -28 185 -185
c200 -201 239 -254 284 -386 l27 -80 3 -602 3 -603 -765 0 -766 0 0 185 c0
202 -6 234 -58 288 -56 59 -67 61 -327 68 -223 5 -245 7 -311 31 -124 44 -235
133 -297 238 -14 25 -58 131 -98 235 -76 200 -105 254 -163 299 -58 44 -105
59 -207 66 -103 8 -138 22 -157 66 -26 56 -7 110 48 139 39 20 336 21 402 1
62 -18 132 -68 167 -119 16 -24 61 -119 101 -212 85 -203 105 -239 162 -292
107 -98 188 -123 404 -123 159 0 198 7 251 46 53 40 74 85 89 197 18 128 46
222 92 312 31 58 68 100 221 251 l184 180 -139 34 c-183 43 -297 81 -419 139
-625 297 -932 866 -769 1429 31 105 70 192 127 280 l45 70 4 339 c4 307 6 345
26 415 35 126 29 121 136 116 55 -3 117 -14 156 -27z"></path>
    </g>
  </symbol>
  <symbol xmlns="http://www.w3.org/2000/svg" viewBox="0 0 48 48" id="grade_FILL0_wght400_GRAD0_opsz48">
    <path d="m16.15 37.75 7.85-4.7 7.85 4.75-2.1-8.9 6.9-6-9.1-.8L24 13.7l-3.55 8.35-9.1.8 6.9 6ZM11.65 44l3.25-14.05L4 20.5l14.4-1.25L24 6l5.6 13.25L44 20.5l-10.9 9.45L36.35 44 24 36.55ZM24 26.25Z"></path>
  </symbol>
  <symbol version="1.0" xmlns="http://www.w3.org/2000/svg" preserveAspectRatio="xMidYMid meet" viewBox="0 0 512.000000 512.000000" id="home_FILL0_wght500_GRAD0_opsz40">
    <g transform="translate(0.000000,512.000000) scale(0.100000,-0.100000)" stroke="none">
      <path d="M193 4256 c-94 -30 -161 -98 -183 -187 -7 -31 -10 -488 -8 -1534 l3
-1490 30 -54 c17 -30 48 -67 69 -83 86 -62 -81 -58 2456 -58 2537 0 2370 -4
2456 58 21 16 53 53 69 83 l30 54 0 1515 0 1515 -30 54 c-16 30 -48 67 -69 83
-86 62 82 58 -2460 57 -1880 0 -2329 -3 -2363 -13z m4547 -200 c-8 -7 -475
-358 -1037 -779 -685 -514 -1034 -769 -1060 -776 -49 -14 -117 -14 -166 0 -26
7 -375 262 -1060 776 -562 421 -1029 772 -1037 779 -12 12 314 14 2180 14
1866 0 2192 -2 2180 -14z m-3460 -921 c580 -435 1074 -799 1098 -808 24 -10
74 -23 112 -29 84 -14 187 0 265 36 27 13 525 380 1105 815 l1055 792 3 -685
c1 -377 1 -994 0 -1370 l-3 -685 -555 685 c-305 377 -562 690 -571 695 -27 14
-77 11 -104 -7 -28 -19 -47 -67 -39 -101 4 -14 260 -339 570 -722 l564 -696
-1110 -3 c-611 -1 -1609 -1 -2220 0 l-1110 3 564 696 c310 383 566 708 570
722 8 34 -11 82 -39 101 -25 16 -71 21 -100 10 -8 -4 -264 -313 -567 -688
-303 -374 -555 -685 -559 -690 -5 -6 -9 584 -9 1363 0 1095 3 1371 13 1365 6
-5 487 -364 1067 -799z"></path>
    </g>
  </symbol>
  <symbol version="1.0" xmlns="http://www.w3.org/2000/svg" preserveAspectRatio="xMidYMid meet" viewBox="0 0 512.000000 512.000000" id="mail">
    <g transform="translate(0.000000,512.000000) scale(0.100000,-0.100000)"  stroke="none">
      <path d="M2425 5114 c-480 -45 -876 -227 -1199 -550 -447 -447 -644 -1089
-516 -1675 50 -224 126 -426 240 -632 67 -121 1386 -2125 1428 -2170 104 -111
260 -111 364 0 25 27 1180 1769 1340 2023 252 398 380 816 364 1185 -13 294
-71 527 -195 773 -98 195 -205 344 -357 496 -285 284 -642 467 -1039 531 -95
15 -352 27 -430 19z m395 -240 c530 -77 1024 -447 1246 -932 112 -244 157
-446 157 -707 0 -123 -4 -172 -26 -275 -50 -239 -132 -445 -272 -678 -124
-208 -1351 -2057 -1365 -2057 -14 0 -1241 1849 -1365 2057 -131 219 -208 403
-260 623 -81 343 -42 687 119 1037 227 496 740 871 1281 937 178 22 311 21
485 -5z"></path>
      <path d="M2390 4215 c-338 -61 -617 -286 -753 -605 -126 -297 -93 -653 84
-924 143 -217 344 -360 609 -433 92 -25 368 -25 460 0 265 73 466 216 609 433
140 213 192 487 141 734 -73 356 -325 642 -667 759 -145 49 -333 63 -483 36z
m267 -216 c168 -23 312 -91 433 -205 251 -237 318 -594 170 -901 -98 -202
-278 -352 -497 -415 -111 -32 -295 -32 -406 0 -387 111 -631 491 -563 878 58
333 325 595 656 642 91 13 118 13 207 1z"></path>
    </g>
  </symbol>
  <symbol xmlns="http://www.w3.org/2000/svg" viewBox="0 0 48 48" id="pin">
    <path d="M24 34.95q3.3 0 6.075-1.775Q32.85 31.4 34.1 28.35H13.9q1.3 3.05 4.05 4.825Q20.7 34.95 24 34.95Zm-8.9-13.6 2.25-2.25 2.25 2.25 1.8-1.8-4.05-4.05-4.05 4.05Zm13.35 0 2.25-2.25 2.25 2.25 1.8-1.8-4.05-4.05-4.05 4.05ZM24 44q-4.15 0-7.8-1.575-3.65-1.575-6.35-4.275-2.7-2.7-4.275-6.35Q4 28.15 4 24t1.575-7.8Q7.15 12.55 9.85 9.85q2.7-2.7 6.35-4.275Q19.85 4 24 4t7.8 1.575q3.65 1.575 6.35 4.275 2.7 2.7 4.275 6.35Q44 19.85 44 24t-1.575 7.8q-1.575 3.65-4.275 6.35-2.7 2.7-6.35 4.275Q28.15 44 24 44Zm0-20Zm0 17q7.1 0 12.05-4.95Q41 31.1 41 24q0-7.1-4.95-12.05Q31.1 7 24 7q-7.1 0-12.05 4.95Q7 16.9 7 24q0 7.1 4.95 12.05Q16.9 41 24 41Z"></path>
  </symbol>
  <symbol xmlns="http://www.w3.org/2000/svg" viewBox="0 0 48 48" id="sentiment_very_satisfied_FILL0_wght400_GRAD0_opsz48 (1)">
    <path d="M24 34.95q3.3 0 6.075-1.775Q32.85 31.4 34.1 28.35H13.9q1.3 3.05 4.05 4.825Q20.7 34.95 24 34.95Zm-8.9-13.6 2.25-2.25 2.25 2.25 1.8-1.8-4.05-4.05-4.05 4.05Zm13.35 0 2.25-2.25 2.25 2.25 1.8-1.8-4.05-4.05-4.05 4.05ZM24 44q-4.15 0-7.8-1.575-3.65-1.575-6.35-4.275-2.7-2.7-4.275-6.35Q4 28.15 4 24t1.575-7.8Q7.15 12.55 9.85 9.85q2.7-2.7 6.35-4.275Q19.85 4 24 4t7.8 1.575q3.65 1.575 6.35 4.275 2.7 2.7 4.275 6.35Q44 19.85 44 24t-1.575 7.8q-1.575 3.65-4.275 6.35-2.7 2.7-6.35 4.275Q28.15 44 24 44Zm0-20Zm0 17q7.1 0 12.05-4.95Q41 31.1 41 24q0-7.1-4.95-12.05Q31.1 7 24 7q-7.1 0-12.05 4.95Q7 16.9 7 24q0 7.1 4.95 12.05Q16.9 41 24 41Z"></path>
  </symbol>
  <symbol version="1.0" xmlns="http://www.w3.org/2000/svg" preserveAspectRatio="xMidYMid meet" viewBox="0 0 512.000000 512.000000" id="sentiment_very_satisfied_FILL0_wght400_GRAD0_opsz48">
    <g transform="translate(0.000000,512.000000) scale(0.100000,-0.100000)" stroke="none">
      <path d="M2370 5113 c-379 -36 -661 -116 -980 -278 -378 -193 -717 -497 -965
-865 -104 -156 -232 -419 -294 -605 -49 -150 -89 -321 -113 -490 -17 -118 -17
-512 0 -630 42 -295 120 -553 242 -800 137 -280 272 -468 494 -691 221 -220
412 -357 681 -489 188 -92 309 -137 500 -185 500 -126 1002 -102 1490 71 149
53 407 182 540 271 365 243 667 578 866 963 181 348 271 694 286 1090 15 426
-73 832 -263 1214 -124 250 -263 447 -458 648 -216 224 -428 378 -711 518
-296 146 -572 225 -900 255 -102 9 -333 11 -415 3z m395 -303 c785 -72 1480
-553 1825 -1264 106 -217 166 -409 206 -661 25 -154 25 -496 0 -650 -40 -252
-100 -444 -206 -661 -223 -458 -585 -820 -1045 -1045 -216 -105 -408 -165
-660 -205 -154 -25 -496 -25 -650 0 -433 70 -808 240 -1135 514 -498 417 -800
1067 -800 1722 0 655 301 1302 800 1723 464 390 1069 582 1665 527z"></path>
      <path d="M1265 3696 c-203 -47 -427 -191 -454 -291 -21 -81 26 -163 105 -184
57 -15 104 1 168 57 201 177 494 177 701 2 70 -59 114 -74 170 -59 89 25 134
118 97 201 -39 89 -217 208 -389 260 -89 26 -310 34 -398 14z"></path>
      <path d="M3510 3695 c-185 -41 -398 -172 -442 -273 -37 -83 8 -177 98 -201 55
-15 99 0 161 52 108 92 223 137 352 137 136 0 258 -45 357 -132 64 -56 112
-72 169 -57 103 29 143 155 76 241 -56 71 -214 168 -341 210 -83 27 -112 31
-230 34 -93 3 -155 -1 -200 -11z"></path>
      <path d="M900 2679 c-40 -16 -80 -60 -91 -102 -24 -91 26 -426 93 -616 96
-276 279 -548 496 -737 805 -704 2030 -542 2624 345 167 250 261 526 289 844
7 87 7 137 0 164 -12 43 -51 86 -94 102 -38 15 -3281 14 -3317 0z m3110 -293
c0 -2 -7 -43 -15 -92 -78 -454 -377 -855 -790 -1058 -208 -103 -409 -149 -645
-149 -394 0 -747 146 -1027 424 -231 230 -360 489 -418 842 l-6 37 1451 0
c797 0 1450 -2 1450 -4z"></path>
    </g>
  </symbol>
  <symbol version="1.0" xmlns="http://www.w3.org/2000/svg" preserveAspectRatio="xMidYMid meet" viewBox="0 0 512.000000 512.000000" id="smile">
    <g transform="translate(0.000000,512.000000) scale(0.100000,-0.100000)" stroke="none">
      <path d="M2370 5113 c-379 -36 -661 -116 -980 -278 -378 -193 -717 -497 -965
-865 -104 -156 -232 -419 -294 -605 -49 -150 -89 -321 -113 -490 -17 -118 -17
-512 0 -630 42 -295 120 -553 242 -800 137 -280 272 -468 494 -691 221 -220
412 -357 681 -489 188 -92 309 -137 500 -185 500 -126 1002 -102 1490 71 149
53 407 182 540 271 365 243 667 578 866 963 181 348 271 694 286 1090 15 426
-73 832 -263 1214 -124 250 -263 447 -458 648 -216 224 -428 378 -711 518
-296 146 -572 225 -900 255 -102 9 -333 11 -415 3z m395 -303 c785 -72 1480
-553 1825 -1264 106 -217 166 -409 206 -661 25 -154 25 -496 0 -650 -40 -252
-100 -444 -206 -661 -223 -458 -585 -820 -1045 -1045 -216 -105 -408 -165
-660 -205 -154 -25 -496 -25 -650 0 -433 70 -808 240 -1135 514 -498 417 -800
1067 -800 1722 0 655 301 1302 800 1723 464 390 1069 582 1665 527z"></path>
      <path d="M1265 3696 c-203 -47 -427 -191 -454 -291 -21 -81 26 -163 105 -184
57 -15 104 1 168 57 201 177 494 177 701 2 70 -59 114 -74 170 -59 89 25 134
118 97 201 -39 89 -217 208 -389 260 -89 26 -310 34 -398 14z"></path>
      <path d="M3510 3695 c-185 -41 -398 -172 -442 -273 -37 -83 8 -177 98 -201 55
-15 99 0 161 52 108 92 223 137 352 137 136 0 258 -45 357 -132 64 -56 112
-72 169 -57 103 29 143 155 76 241 -56 71 -214 168 -341 210 -83 27 -112 31
-230 34 -93 3 -155 -1 -200 -11z"></path>
      <path d="M900 2679 c-40 -16 -80 -60 -91 -102 -24 -91 26 -426 93 -616 96
-276 279 -548 496 -737 805 -704 2030 -542 2624 345 167 250 261 526 289 844
7 87 7 137 0 164 -12 43 -51 86 -94 102 -38 15 -3281 14 -3317 0z m3110 -293
c0 -2 -7 -43 -15 -92 -78 -454 -377 -855 -790 -1058 -208 -103 -409 -149 -645
-149 -394 0 -747 146 -1027 424 -231 230 -360 489 -418 842 l-6 37 1451 0
c797 0 1450 -2 1450 -4z"></path>
    </g>
  </symbol>
  <symbol version="1.0" xmlns="http://www.w3.org/2000/svg" preserveAspectRatio="xMidYMid meet" viewBox="0 0 512.000000 512.000000" id="smile_1">
    <g transform="translate(0.000000,512.000000) scale(0.100000,-0.100000)" stroke="none">
      <path d="M4575 4721 c-99 -33 -1102 -364 -2230 -736 -1127 -371 -2082 -686
-2122 -701 -90 -32 -152 -86 -190 -162 -38 -77 -39 -193 -4 -262 29 -57 85
-116 133 -141 20 -10 283 -127 584 -259 301 -132 548 -241 550 -243 2 -2 80
-358 173 -791 94 -433 178 -804 188 -824 38 -78 129 -104 208 -59 22 13 230
166 462 340 l422 316 488 -399 c268 -220 510 -411 537 -426 64 -35 152 -43
231 -19 81 23 173 114 198 195 9 30 220 919 468 1975 495 2107 469 1977 416
2081 -54 105 -144 164 -262 171 -64 3 -85 -1 -250 -56z m240 -268 c-4 -16
-207 -878 -451 -1917 -244 -1039 -446 -1892 -449 -1894 -3 -3 -13 2 -22 10
-10 8 -355 291 -768 628 -412 337 -754 616 -758 620 -4 4 344 375 775 825 431
450 793 834 805 854 15 24 23 52 23 82 0 40 -6 53 -38 89 -36 41 -42 44 -98
47 l-59 4 -1177 -654 -1176 -654 -562 245 c-308 135 -557 249 -552 254 8 8
4478 1486 4501 1487 10 1 11 -6 6 -26z m-1805 -1427 c0 -2 -223 -238 -496
-523 -273 -285 -503 -531 -510 -548 -7 -16 -53 -167 -100 -335 -48 -168 -90
-308 -94 -313 -6 -7 -202 883 -204 926 -1 13 169 112 699 407 385 214 701 390
703 390 1 0 2 -2 2 -4z m-632 -1524 c68 -55 123 -103 123 -107 0 -10 -436
-335 -439 -327 -1 4 25 102 58 217 108 374 99 349 118 332 9 -8 72 -59 140
-115z"></path>
    </g>
  </symbol>
</svg>